# xmcd CD database file
#
# Track frame offsets:
#	150
#	16635
#	33948
#	47000
#
# Disc length: 860 seconds
#
# Revision: 0
# Processed by: cddbd v1.5.1PL2 Copyright (c) Steve Scherf et al.
# Submitted via: CDex 1.51
#
DISCID=20035a04
DTITLE=Yeehaa Boys - Playin' 8 Ball
DYEAR=2006
DGENRE=Country
TTITLE0=Playin' 8 Ball
TTITLE1=Can Ya Feel It
TTITLE2=Chatter Chatter
TTITLE3=Dancin' Legs
EXTD=YEAR: 2006
EXTT0=
EXTT1=
EXTT2=
EXTT3=
PLAYORDER=
